<svg xmlns="http://www.w3.org/2000/svg" width="16" height="18" viewBox="0 0 16 18">
  <path id="home-alt" d="M5.667,19.121A2.579,2.579,0,0,1,3,16.639V8.366a.781.781,0,0,1,0-.083H3a1.736,1.736,0,0,1,.565-1.27L9.114,1.848a2.809,2.809,0,0,1,3.771,0l5.549,5.165A1.736,1.736,0,0,1,19,8.283h0a.779.779,0,0,1,0,.083v8.273a2.579,2.579,0,0,1-2.667,2.482Zm5.962-16.1,5.594,5.206v8.415a.86.86,0,0,1-.889.827H13.667V13.33A2.579,2.579,0,0,0,11,10.848,2.579,2.579,0,0,0,8.333,13.33v4.137H5.667a.86.86,0,0,1-.889-.827V8.224l5.594-5.206A.936.936,0,0,1,11.629,3.018Z" transform="translate(-3 -1.122)" fill="#74b42c"/>
</svg>
