<svg xmlns="http://www.w3.org/2000/svg" width="13" height="15" viewBox="0 0 13 15">
  <g id="Layer_2" data-name="Layer 2" transform="translate(0.051 0)">
    <g id="Layer_1" data-name="Layer 1" transform="translate(-0.051 0)">
      <path id="Path_10294" data-name="Path 10294" d="M12.868.56A.905.905,0,0,0,12.031,0H.881A.921.921,0,0,0,.225,1.579L2.586,3.921A5.954,5.954,0,0,1,4.315,8.131L4.289,14.6a.4.4,0,0,0,.194.342.411.411,0,0,0,.2.053.4.4,0,0,0,.194-.053l3.673-2.105a.39.39,0,0,0,.2-.342V8.047a5.907,5.907,0,0,1,1.648-4.1l2.285-2.368A.91.91,0,0,0,12.868.56Z" transform="translate(0.051 0)" fill="#c8c8c8"/>
    </g>
  </g>
</svg>
