<svg xmlns="http://www.w3.org/2000/svg" width="18.92" height="16.871" viewBox="0 0 18.92 16.871">
  <g id="Logo_white" data-name="Logo white" transform="translate(178.634 -234.263)">
    <g id="g1413" transform="translate(-178.634 234.263)">
      <path id="path1353" d="M-170.753,244.107a1.9,1.9,0,0,1-.525,1.887A21.149,21.149,0,0,1-175.353,249a18.335,18.335,0,0,1-2.451,1.2c-.554.195-1.011.282-1.245-.117a.77.77,0,0,1,0-.7,61.138,61.138,0,0,1,3.452-6.632c.117-.195.233-.408.35-.613,1.731-2.986,4.026-6.642,4.483-7.235.058-.078.185-.175.292-.117a.218.218,0,0,1,.078.233c0,.01-.029.117-.039.165a24.688,24.688,0,0,0-.321,8.928Z" transform="translate(179.134 -234.763)" fill="#9c9c9c"/>
      <path id="path1355" d="M-155.219,245.168c-.729-.331-1.109-.506-1.371-1.4a21.066,21.066,0,0,1-.564-5.028,17.785,17.785,0,0,1,.185-2.723c.107-.574.263-1.021.729-1.021a.771.771,0,0,1,.6.36,60.313,60.313,0,0,1,4.016,6.292c.117.2.233.408.35.622,1.721,3,3.744,6.808,4.026,7.488.039.1.068.253-.039.321a.236.236,0,0,1-.243-.049c-.01-.01-.088-.088-.126-.117a24.586,24.586,0,0,0-7.566-4.746Z" transform="translate(166.128 -234.901)" fill="#9c9c9c"/>
      <path id="path1357" d="M-169.382,263.318a1.918,1.918,0,0,1,1.906-.5,22.133,22.133,0,0,1,4.639,2.033,17.909,17.909,0,0,1,2.256,1.517c.447.379.749.739.525,1.138a.769.769,0,0,1-.613.35,62.428,62.428,0,0,1-7.459.331h-.72c-3.452-.01-7.761-.165-8.5-.263-.107-.019-.253-.068-.243-.194a.209.209,0,0,1,.156-.185,1.185,1.185,0,0,1,.165-.049,24.762,24.762,0,0,0,7.887-4.182Z" transform="translate(178.221 -251.319)" fill="#9c9c9c"/>
    </g>
  </g>
</svg>
