<svg xmlns="http://www.w3.org/2000/svg" width="18" height="16" viewBox="0 0 18 16">
  <g id="shopping-cart" transform="translate(-1 -2)">
    <path id="Path_1" data-name="Path 1" d="M5.006,2H1V3.6H3.691L6.005,13.73h.011v.258H16.884v-.2l1.834-7.721L19,5.2H5.728L5.251,3.11ZM16.873,6.8H6.093L7.371,12.39h8.174Z" fill="#74b42c"/>
    <path id="Path_2" data-name="Path 2" d="M9.6,21.21A1.6,1.6,0,1,0,8,19.6,1.6,1.6,0,0,0,9.6,21.21Zm7.221-1.6a1.6,1.6,0,1,1-1.6-1.6A1.6,1.6,0,0,1,16.826,19.6Z" transform="translate(-0.902 -3.21)" fill="#74b42c"/>
  </g>
</svg>
