<svg xmlns="http://www.w3.org/2000/svg" width="19" height="18" viewBox="0 0 19 18">
  <g id="shopping-cart" transform="translate(-1 -2)">
    <path id="Path_1" data-name="Path 1" d="M5.228,2H1V3.865H3.84L6.283,15.687h.011v.3H17.767v-.231L19.7,6.748,20,5.73H5.99l-.5-2.435ZM17.755,7.6H6.376l1.349,6.528h8.628Z" transform="translate(0)" fill="#242424"/>
    <path id="Path_2" data-name="Path 2" d="M9.6,21.21A1.6,1.6,0,1,0,8,19.6,1.6,1.6,0,0,0,9.6,21.21Zm7.221-1.6a1.6,1.6,0,1,1-1.6-1.6A1.6,1.6,0,0,1,16.826,19.6Z" transform="translate(-0.237 -1.21)" fill="#242424"/>
  </g>
</svg>
