<svg xmlns="http://www.w3.org/2000/svg" width="15" height="15" viewBox="0 0 15 15">
  <g id="smile" transform="translate(-2 -2)">
    <path id="Path_10298" data-name="Path 10298" d="M13.887,11.944H12.415a1.472,1.472,0,0,1-2.944,0H8a2.944,2.944,0,0,0,5.887,0ZM9.472,9.736A.736.736,0,1,1,8.736,9,.736.736,0,0,1,9.472,9.736Zm3.68.736a.736.736,0,1,0-.736-.736A.736.736,0,0,0,13.151,10.472Z" transform="translate(-1.444 -1.684)" fill="#242424"/>
    <path id="Path_10299" data-name="Path 10299" d="M17,9.5A7.5,7.5,0,1,1,9.5,2,7.5,7.5,0,0,1,17,9.5Zm-1.5,0a6,6,0,1,1-6-6A6,6,0,0,1,15.5,9.5Z" transform="translate(0 0)" fill="#242424"/>
  </g>
</svg>
