<?xml version="1.0" standalone="no"?>
<!DOCTYPE svg PUBLIC "-//W3C//DTD SVG 20010904//EN"
 "http://www.w3.org/TR/2001/REC-SVG-20010904/DTD/svg10.dtd">
<svg version="1.0" xmlns="http://www.w3.org/2000/svg"
 width="22.000000pt" height="18.000000pt" viewBox="0 0 22.000000 18.000000"
 preserveAspectRatio="xMidYMid meet">

<g transform="translate(0.000000,18.000000) scale(0.100000,-0.100000)"
fill="#000000" stroke="none">
<path d="M63 161 c-35 -22 -49 -64 -34 -104 13 -33 39 -47 89 -47 80 0 113 92
51 144 -36 31 -63 33 -106 7z m106 -27 c26 -34 26 -54 0 -88 -24 -30 -72 -35
-107 -10 -31 21 -31 87 0 108 35 25 83 20 107 -10z"/>
<path d="M130 109 c0 -5 5 -7 10 -4 6 3 10 8 10 11 0 2 -4 4 -10 4 -5 0 -10
-5 -10 -11z"/>
<path d="M79 66 c16 -19 62 -18 69 2 3 11 1 11 -17 0 -17 -11 -25 -10 -43 1
-21 13 -22 13 -9 -3z"/>
</g>
</svg>
